<svg xmlns="http://www.w3.org/2000/svg" viewBox="0 0 120 32">
  <g fill-rule="nonzero" fill="none">
    <path fill="#3C3C3C" d="M34.7239959 13L37 13 34.2760041 26 32 26z"/>
    <path fill="#3C3C3C" d="M35.6447602 7L38 7 37.3605684 10 35 10z"/>
    <path fill="#3C3C3C" d="M41.7915633 7L44 7 40.2084367 27 38 27z"/>
    <path d="M57.8265361,18.2345482 C57.7899301,18.4058576 57.7271772,18.6186966 57.6487359,18.8782564 L57.3715769,19.7036565 L47.6082583,19.9476427 C47.4395904,20.6268566 47.3587557,21.3246304 47.3677052,22.024121 C47.4056081,22.482142 47.5886761,22.9164768 47.8906468,23.2648167 C48.2286844,23.6228764 48.6620472,23.8784738 49.1404771,24.0019665 C49.8088188,24.2003603 50.5033068,24.2983478 51.2008667,24.2926734 C51.9957379,24.2926734 52.7696913,24.2926734 53.6325449,24.2303791 C54.3870065,24.2288147 55.1366913,24.1114929 55.8550464,23.882569 L55.4889874,25.6216195 C55.2118283,25.6787227 55.1176989,25.6994875 54.7202633,25.7617818 C54.3228277,25.8240761 53.9253922,25.8863705 53.4599742,25.9227089 C52.9945562,25.9590472 52.5814324,25.9850032 52.0637203,25.9953856 C51.5460081,26.005768 51.0178372,25.9953856 50.5315016,25.9953856 C49.5896077,26.018409 48.6488049,25.9171608 47.7337643,25.6942963 C47.0249618,25.5243788 46.3815625,25.1527077 45.8825513,24.62491 C45.3989837,24.0590395 45.1015227,23.3597711 45.0301565,22.6211085 C44.9461208,21.5750834 45.0380191,20.5224677 45.3020861,19.5063911 C45.5154206,18.4182513 45.8926863,17.3682279 46.421181,16.3916737 C46.8472571,15.6162239 47.4292991,14.9359535 48.1311999,14.3930634 C48.8062931,13.883432 49.5810623,13.5192113 50.4059956,13.3236771 C51.3275708,13.1062351 52.272199,13 53.2194211,13.0070142 C54.1945431,12.9630836 55.1679035,13.1258944 56.0746819,13.4846042 C56.6809999,13.7385957 57.1952751,14.1694571 57.549377,14.7201087 C57.8465901,15.2370328 58.0016834,15.8224381 57.9991068,16.4176297 C58.0080234,17.0276854 57.9501605,17.6368978 57.8265361,18.2345482 Z M55.5621992,18.2345482 C55.663891,17.7782281 55.7303235,17.3148639 55.760917,16.8484989 C55.7942275,16.4488913 55.7202469,16.0476588 55.5465109,15.6856711 C55.3579394,15.328886 55.0487195,15.0494973 54.6731986,14.8966094 C54.1029645,14.6740641 53.4914349,14.5749522 52.8795091,14.6059024 C52.1720783,14.5889832 51.4663239,14.6818122 50.7877429,14.8810358 C50.2625527,15.0465689 49.7805018,15.324824 49.3758007,15.6960535 C48.9872636,16.0674259 48.6747343,16.5098777 48.4554236,16.9990436 C48.2253811,17.4547382 48.0498726,17.9356013 47.9324821,18.4318136 L55.5621992,18.2345482 Z" fill="#3C3C3C"/>
    <path d="M68.410233,19.7355127 C68.0396506,19.408751 67.598227,19.161801 67.1164915,19.0117419 C66.445026,18.7858889 65.7582367,18.6028111 65.0607583,18.463744 C64.5966865,18.3808768 64.1374264,18.2756195 63.6847876,18.1483868 C63.4009282,18.076111 63.135928,17.9493961 62.9063499,17.7761618 C62.7450476,17.6414753 62.6368449,17.4592588 62.5993604,17.2591826 C62.5633776,16.9946563 62.5819927,16.7260635 62.65418,16.4682045 C62.7422808,15.8440062 63.1530332,15.3016985 63.750571,15.0206629 C64.5374858,14.7397408 65.3768767,14.613086 66.2174509,14.6484379 C66.8763595,14.6452957 67.5344748,14.6919733 68.1854728,14.7880223 C68.6696831,14.854948 69.1466515,14.9622099 69.6107812,15.1085494 L70,13.3559901 C69.5701396,13.2484378 69.1321053,13.1723876 68.6898127,13.1285192 C67.9839062,13.0495083 67.2736751,13.0098043 66.5628141,13.009614 C65.0762752,12.9385281 63.5984641,13.2627598 62.2978529,13.9453463 C61.3226152,14.4838709 60.62935,15.3811903 60.3846505,16.4216764 C60.2686295,16.8713251 60.2279362,17.3353263 60.2640475,17.7968409 C60.2948094,18.1663166 60.4482634,18.5172521 60.7026039,18.7997805 C61.0044289,19.1170806 61.3795494,19.3647124 61.798995,19.5235513 C62.4237933,19.7572789 63.0721705,19.930496 63.7341252,20.0405304 C64.4248515,20.1801148 64.9730471,20.3145294 65.3787117,20.4386044 C65.7102858,20.5248058 66.0211227,20.6704964 66.2941983,20.8676971 C66.4887075,21.0190138 66.6126741,21.2361277 66.6395614,21.4725627 C66.6615463,21.7831706 66.6338259,22.0951299 66.5573321,22.3979553 C66.4541384,23.0781563 65.9916095,23.6623402 65.3293741,23.9488928 C64.4692575,24.2570031 63.5514153,24.395988 62.6322522,24.3573063 C62.2978529,24.3573063 61.9360439,24.3573063 61.5358611,24.3262876 C61.1356784,24.2952688 60.7574235,24.2642501 60.3791686,24.2177219 C60.0009137,24.1711938 59.6336227,24.1194959 59.2827775,24.0574584 C58.9319324,23.9954209 58.6304249,23.9282136 58.3837369,23.8661761 L58,25.5980563 C58.1918684,25.6445844 58.4550023,25.6911125 58.7839196,25.7479802 C59.1128369,25.8048479 59.4801279,25.8462062 59.8803106,25.877225 L61.1027867,25.9599417 C61.5139333,25.9599417 61.9031521,25.9909604 62.2759251,25.9909604 C63.8122467,26.0573878 65.3414782,25.7568656 66.7217908,25.1172656 C67.8562842,24.5453966 68.6502388,23.5146832 68.8761992,22.3204085 C69.0090155,21.8134168 69.0424567,21.2878019 68.9748744,20.769471 C68.9075124,20.3771261 68.7098009,20.0150813 68.410233,19.7355127 Z" fill="#3C3C3C"/>
    <path fill="#3C3C3C" d="M74.7296182 13L77 13 74.2703818 26 72 26z"/>
    <path fill="#4696F5" d="M75.6482143 7L78 7 77.3517857 10 75 10z"/>
    <path d="M90.5085714,12.0057216 L90.0514286,14.0940129 C89.1424609,12.737453 87.5672757,11.9445426 85.9028571,12.0057216 L85.4457143,12.0057216 C84.3020161,11.963769 83.1618002,12.1528861 82.0971429,12.5611182 C81.217248,12.928612 80.4253332,13.4694801 79.7714286,14.1495526 C79.1209895,14.8335218 78.6022734,15.6255093 78.24,16.4877724 C77.8523575,17.4013498 77.5520434,18.3476635 77.3428571,19.3147412 C77.1455041,20.0811247 77.0476006,20.8685001 77.0514286,21.6585149 C77.0151978,22.4582376 77.1902834,23.2536548 77.56,23.9689648 C77.9310691,24.6284599 78.5126828,25.1528207 79.2171429,25.4629818 C81.4058815,26.1427833 83.7699026,26.0603019 85.9028571,25.2297152 C86,25.1741755 86.0914286,25.1075279 86.1828571,25.0519883 L86.6057143,23.1081001 C86.2720611,23.338038 85.9090051,23.5247418 85.5257143,23.6634967 C84.7446195,23.9228476 83.9222869,24.0450876 83.0971429,24.0245045 C82.3661126,24.0813355 81.6322944,23.9551339 80.9657143,23.6579427 C80.4987521,23.4000006 80.1420499,22.9883008 79.96,22.4971638 C79.7688945,21.9453563 79.7064345,21.3591484 79.7771429,20.7809882 C79.8092166,20.2903587 79.8857028,19.8034297 80.0057143,19.3258491 C80.1590335,18.6407371 80.3497798,17.9640465 80.5771429,17.2986514 C80.7735645,16.6687802 81.0809847,16.0768273 81.4857143,15.5491521 C81.8976217,15.0453623 82.4184996,14.6358003 83.0114286,14.3494954 C83.748087,14.0254226 84.5519164,13.8714482 85.36,13.8996241 C86.1414015,13.8659982 86.9210631,13.9967165 87.6457143,14.2828478 C88.165278,14.5091255 88.5988991,14.8878527 88.8857143,15.3658712 C89.1645707,15.892072 89.2984418,16.4795042 89.2742857,17.0709388 C89.2265052,17.7989029 89.1059368,18.5206186 88.9142857,19.2258777 L88.9142857,19.2258777 L88.9142857,19.2703094 C88.9169592,19.2812654 88.9169592,19.2926773 88.9142857,19.3036332 C88.9142857,19.3980507 88.8742857,19.4924681 88.8514286,19.5924395 L87.84,24.2633251 L87.5942857,25.3741183 C87.374848,26.7628037 86.6338199,28.0232199 85.5142857,28.9119948 C84.2956329,29.6816452 82.8568999,30.055062 81.4057143,29.9783563 C79.7272435,29.8742138 78.0616316,29.6251551 76.4285714,29.2341248 L76,31.183567 C76.9634578,31.4591747 77.9421583,31.6816875 78.9314286,31.8500429 C79.5893227,31.9328114 80.2511374,31.9828623 80.9142857,32 C83.5809524,32 85.6438095,31.4446034 87.1028571,30.3338101 C88.6140058,29.1676068 89.6424748,27.5114409 90,25.6684785 L93,12.0057216 L90.5085714,12.0057216 Z" fill="#3C3C3C"/>
    <path d="M105.993757,15.9752066 C105.973054,15.4444438 105.81838,14.9308534 105.547407,14.4931129 C105.242587,14.0390154 104.820484,13.6988484 104.337301,13.5179063 C103.646733,13.255875 102.919244,13.1345523 102.18986,13.1597796 C101.758094,13.1638064 101.327154,13.2024745 100.900403,13.2754821 C100.460363,13.3465046 100.028201,13.4683775 99.6109459,13.6391185 C99.5180417,13.6737872 99.4269736,13.7142556 99.3381762,13.7603306 C98.6334292,14.070781 97.986172,14.5227634 97.4287882,15.0936639 L98.9662175,7 L96.7939787,7 L93,26.9889807 L95.1821577,26.9889807 L96.8485327,18.2066116 C97.1236841,17.6098437 97.4818613,17.065038 97.9098548,16.5922865 C98.247053,16.2354808 98.633912,15.9415212 99.0554876,15.7217631 C99.4474728,15.5221305 99.8634292,15.3866548 100.290391,15.3195592 C100.717958,15.257664 101.148666,15.2263782 101.579847,15.2258953 C102.015323,15.2062562 102.449633,15.2888616 102.854426,15.4683196 C103.143882,15.6020649 103.382371,15.8436334 103.528911,16.1515152 C103.676282,16.4944911 103.739579,16.8745957 103.712411,17.2534435 C103.672665,17.7527763 103.599728,18.2481591 103.494195,18.7355372 L101.927009,27 L104.109166,27 L105.840014,17.8760331 C105.967357,17.25288 106.019063,16.6135976 105.993757,15.9752066 Z" fill="#3C3C3C"/>
    <path d="M113.947242,25.0156849 C113.663361,25.0439951 113.378263,25.0568638 113.093102,25.0542388 C112.737819,25.0680484 112.382523,25.0272222 112.038609,24.9330694 C111.816263,24.8697325 111.626805,24.7173413 111.511362,24.5089765 C111.389453,24.2475618 111.341877,23.955106 111.374278,23.6662985 C111.409587,23.199288 111.476539,22.735479 111.574632,22.2783583 L112.929656,15.5424418 L116.514933,15.5424418 L116.652017,14.8705025 L117,13.157608 L113.414723,13.157608 L114.659025,7 L112.360229,7 L109.249474,22.4215585 C109.070212,23.1817073 108.986903,23.9630851 109.001668,24.7458076 C108.999772,25.2536334 109.163404,25.7470089 109.465645,26.1447633 C109.781946,26.5025651 110.20283,26.7407959 110.662495,26.8222103 C111.317596,26.9514994 111.983625,27.0105547 112.650215,26.9984567 C112.950746,26.9984567 113.230186,26.9984567 113.488537,26.9599028 L114.231955,26.8717796 L114.622118,24.9275617 C114.398761,24.96905 114.173502,24.9984635 113.947242,25.0156849 L113.947242,25.0156849 Z" fill="#3C3C3C"/>
    <path fill="#235FA5" d="M4.04400284 6L0 27 3.92476934 27 7 11.036519z"/>
    <path fill="#235FA5" d="M26.848603 12.339341L24 27 28.1117609 27 32 7z"/>
    <path d="M31.2032469,0 L16.8954321,13.9318999 C16.7176612,14.1043658 16.4732899,14.1870188 16.2292455,14.1572225 C15.9852011,14.1274261 15.7670614,13.9883033 15.6345695,13.7779563 L10.3313704,5.40452156 C10.1162984,5.06319508 9.74538678,4.8561376 9.34649053,4.85472283 L4,4.85472283 L4.11905141,5.03615641 L4.11905141,5.03615641 L14.6821582,21.728046 C14.7740352,21.8760891 14.9265329,21.9743435 15.0975105,21.9956579 C15.2684881,22.0169723 15.4398421,21.9590899 15.5642209,21.8380057 L38,0 L31.2032469,0 Z" fill="#4696F5"/>
  </g>
</svg>
