<svg fill="none" xmlns="http://www.w3.org/2000/svg" viewBox="0 0 32 32" class="design-iconfont">
  <path d="M3.46629 9L0 27H3.36409L6 13.317L3.46629 9Z" fill="#ffffff"/>
  <path d="M22.4925 14.5384L20 27H23.5978L27 10L22.4925 14.5384Z" fill="#ffffff"/>
  <path d="M26.2028 4L13.999 16.0321C13.8474 16.181 13.639 16.2524 13.4308 16.2267C13.2227 16.201 13.0366 16.0808 12.9236 15.8991L8.40029 8.66754C8.21684 8.37276 7.90048 8.19394 7.56024 8.19272H3L3.10154 8.34941L12.1113 22.7651C12.1896 22.893 12.3197 22.9778 12.4655 22.9963C12.6114 23.0147 12.7575 22.9647 12.8636 22.8601L32 4H26.2028Z" fill="#ffffff"/>
</svg>
