<svg xmlns="http://www.w3.org/2000/svg" viewBox="0 0 120 32">
  <defs>
    <style>
      .cls-1 {
        opacity: .7;
      }

      .cls-1, .cls-2 {
        fill: #fff;
      }

      .cls-1, .cls-2, .cls-3 {
        stroke-width: 0px;
      }

      .cls-3 {
        fill: #fff;
      }
    </style>
  </defs>
  <path class="cls-2" d="M11.16,12.96l-5.22,8.38s0,0,0,0c-1.02,1.74-.58,3.99-.58,3.99l-1.29-.99-1.13-.86c-1.66-1.4-2.06-3.79-.96-5.67l2.79-4.76c.31-.53.84-.89,1.44-.99h4.35c.5-.09.87.45.62.89Z"/>
  <path class="cls-3" d="M30.95,19l-5.64,5.64c-.24.24-.63.24-.88,0l-1.38-1.38c-.25-.24-.24-.64,0-.88l3.5-3.37c.25-.24.25-.65,0-.89l-3.5-3.37c-.25-.24-.25-.64,0-.89l1.38-1.38c.24-.24.63-.24.88,0l5.64,5.64c.24.24.24.63,0,.88Z"/>
  <path class="cls-2" d="M19.9,21.47s0,.02,0,.02c-1.54-.79-3.29-1.22-5.03-1.11v.07c1.03.03,2.04.25,2.99.61.83.3,1.6.7,2.31,1.2,0,.01.01.03.02.04.73.64,1.43,1.46,2,2.5h.13c.22,0,.42.05.61.13.16.07.31.17.44.29.22.21.37.48.42.78.01.07.02.14.02.22,0,.21-.18.38-.4.38h-14.58c-.57,0-1.09-.17-1.5-.44-1.58-1.32-.1-4.5.36-5.25.45-.75,2.73-4.54,2.73-4.54.06-.1.09-.15.09-.15l5.45-9.03c-.22-.02-.41-.12-.56-.26-.17-.16-.27-.39-.27-.64,0-.5.42-.9.94-.9h6.82c1.2,0,1.99,1.2,1.47,2.24l-1.08,2.16-.34.68c-1.39,1.21-8.35,7.64-3.03,11.01Z"/>
  <path class="cls-1" d="M22.94,10.46l-1.65,3.31s-.02.03-.04.08l-.02.03c-.03.06-.08.15-.13.25-.02.05-.04.09-.07.14,0,0,0,0,0,0-.58,1.22-1.88,4.45-1.13,7.19-5.31-3.37,1.64-9.8,3.03-11.01Z"/>
  <g>
    <path class="cls-2" d="M39.5,24.65v-12.33h4.22c1.39,0,2.46.28,3.18.84.73.56,1.09,1.39,1.09,2.5,0,.56-.15,1.07-.46,1.52-.31.45-.75.8-1.34,1.05.67.18,1.18.52,1.55,1.02s.55,1.1.55,1.8c0,1.16-.37,2.05-1.11,2.67-.74.62-1.81.93-3.19.93h-4.5ZM41.64,17.52h2.1c.67,0,1.19-.15,1.56-.45.38-.3.56-.73.56-1.28,0-.61-.17-1.05-.52-1.32-.35-.27-.89-.41-1.62-.41h-2.08v3.46ZM41.64,19.09v3.85h2.38c.67,0,1.2-.17,1.57-.5s.57-.8.57-1.39c0-1.28-.65-1.94-1.96-1.96h-2.56Z"/>
    <path class="cls-2" d="M54.27,24.82c-1.3,0-2.36-.41-3.17-1.23-.81-.82-1.22-1.91-1.22-3.28v-.25c0-.91.18-1.73.53-2.45.35-.72.85-1.28,1.49-1.68.64-.4,1.35-.6,2.13-.6,1.25,0,2.21.4,2.89,1.19.68.8,1.02,1.92,1.02,3.38v.83h-5.99c.06.76.31,1.35.76,1.79.44.44,1,.66,1.67.66.94,0,1.71-.38,2.3-1.14l1.11,1.06c-.37.55-.86.97-1.47,1.27-.61.3-1.3.45-2.06.45ZM54.02,16.97c-.56,0-1.02.2-1.37.59s-.57.95-.66,1.65h3.92v-.15c-.05-.69-.23-1.21-.55-1.56s-.77-.53-1.34-.53Z"/>
    <path class="cls-2" d="M65.01,24.65c-.09-.17-.17-.46-.24-.86-.66.68-1.46,1.02-2.4,1.02s-1.67-.26-2.25-.79c-.58-.52-.87-1.17-.87-1.95,0-.98.36-1.73,1.09-2.25.73-.52,1.76-.78,3.11-.78h1.26v-.6c0-.47-.13-.85-.4-1.14-.27-.28-.67-.43-1.21-.43-.47,0-.85.12-1.15.35-.3.23-.45.53-.45.89h-2.06c0-.5.17-.97.5-1.41.33-.44.79-.78,1.36-1.03.57-.25,1.21-.37,1.92-.37,1.07,0,1.93.27,2.57.81.64.54.97,1.3.98,2.27v4.13c0,.82.12,1.48.35,1.97v.14h-2.1ZM62.75,23.17c.41,0,.79-.1,1.15-.3.36-.2.63-.46.81-.8v-1.73h-1.11c-.76,0-1.34.13-1.72.4-.38.27-.58.64-.58,1.13,0,.4.13.71.39.94.26.23.61.35,1.05.35Z"/>
    <path class="cls-2" d="M72.02,22.05l1.94-6.55h2.13l-3.18,9.16h-1.79l-3.2-9.16h2.13l1.96,6.55Z"/>
    <path class="cls-2" d="M81.41,24.82c-1.3,0-2.36-.41-3.17-1.23-.81-.82-1.21-1.91-1.21-3.28v-.25c0-.91.18-1.73.53-2.45.35-.72.85-1.28,1.49-1.68.64-.4,1.35-.6,2.13-.6,1.25,0,2.21.4,2.89,1.19.68.8,1.02,1.92,1.02,3.38v.83h-5.99c.06.76.31,1.35.76,1.79.44.44,1,.66,1.67.66.94,0,1.71-.38,2.3-1.14l1.11,1.06c-.37.55-.86.97-1.47,1.27-.61.3-1.3.45-2.06.45ZM81.16,16.97c-.56,0-1.02.2-1.37.59s-.57.95-.66,1.65h3.92v-.15c-.05-.69-.23-1.21-.55-1.56-.32-.35-.77-.53-1.34-.53Z"/>
    <path class="cls-2" d="M91.47,17.37c-.27-.05-.55-.07-.84-.07-.94,0-1.58.36-1.91,1.08v6.27h-2.06v-9.16h1.96l.05,1.02c.5-.8,1.19-1.19,2.07-1.19.29,0,.54.04.73.12v1.93Z"/>
    <path class="cls-2" d="M99.55,24.65h-2.13v-12.33h2.13v12.33Z"/>
    <path class="cls-2" d="M101.6,19.99c0-.9.18-1.71.53-2.43.36-.72.86-1.27,1.5-1.66s1.38-.58,2.22-.58c1.24,0,2.24.4,3.01,1.19.77.8,1.19,1.85,1.25,3.17v.48c0,.9-.16,1.71-.51,2.42-.35.71-.84,1.26-1.49,1.65s-1.39.58-2.24.58c-1.29,0-2.33-.43-3.1-1.29s-1.16-2.01-1.16-3.44v-.1ZM103.66,20.17c0,.94.19,1.68.58,2.21.39.53.93.8,1.63.8s1.23-.27,1.62-.81.58-1.33.58-2.38c0-.93-.2-1.66-.6-2.2s-.94-.81-1.62-.81-1.21.27-1.6.8c-.39.53-.59,1.33-.59,2.39Z"/>
    <path class="cls-2" d="M118.65,14.05h-3.84v10.6h-2.12v-10.6h-3.81v-1.73h9.78v1.73Z"/>
  </g>
</svg>