<svg xmlns="http://www.w3.org/2000/svg" viewBox="0 0 32 32">
  <defs>
    <style>
      .cls-1 {
        opacity: .7;
      }

      .cls-1, .cls-2 {
        fill: #fff;
      }

      .cls-1, .cls-2, .cls-3 {
        stroke-width: 0px;
      }

      .cls-3 {
        fill: #fff;
      }
    </style>
  </defs>
  <path class="cls-2" d="M11.05,13.04l-5.09,8.16s0,0,0,0c-.99,1.69-.57,3.89-.57,3.89l-1.26-.96-1.1-.84c-1.61-1.37-2.01-3.7-.94-5.52l2.71-4.64c.3-.51.82-.87,1.4-.97h4.24c.49-.08.85.44.6.87Z"/>
  <path class="cls-3" d="M30.33,18.92l-5.5,5.5c-.24.24-.62.24-.85,0l-1.34-1.34c-.24-.24-.24-.63,0-.86l3.41-3.29c.25-.24.25-.63,0-.87l-3.41-3.28c-.24-.24-.25-.62,0-.86l1.34-1.34c.24-.24.62-.24.85,0l5.5,5.5c.24.24.24.62,0,.85Z"/>
  <path class="cls-2" d="M19.56,21.33s0,.01,0,.02c-1.5-.77-3.2-1.19-4.9-1.08v.07c1,.03,1.99.25,2.91.59.81.29,1.56.69,2.25,1.17,0,.01.01.03.02.04.71.62,1.39,1.42,1.95,2.44h.13c.21,0,.41.04.59.12.16.07.31.16.43.28.21.2.36.47.4.76.01.07.02.14.02.21,0,.21-.18.37-.39.37h-14.2c-.56,0-1.06-.16-1.47-.43-1.54-1.29-.09-4.38.35-5.11.44-.73,2.66-4.42,2.66-4.42.06-.09.09-.15.09-.15l5.31-8.8c-.21-.02-.4-.11-.55-.25-.17-.16-.27-.38-.27-.62,0-.48.41-.88.92-.88h6.64c1.17,0,1.94,1.17,1.43,2.18l-1.05,2.1-.33.66c-1.36,1.18-8.13,7.44-2.96,10.72Z"/>
  <path class="cls-1" d="M22.52,10.61l-1.61,3.23s-.01.03-.04.07l-.02.03c-.03.06-.07.14-.12.25-.02.04-.04.09-.07.14,0,0,0,0,0,0-.56,1.19-1.83,4.33-1.1,7.01-5.18-3.28,1.6-9.55,2.96-10.72Z"/>
</svg>