<svg width="104" height="105" viewBox="0 0 104 105" fill="none" xmlns="http://www.w3.org/2000/svg">
<path d="M51.675 94.8313V54.6938L91.6501 38.0376V79.5563L51.675 94.8313Z" fill="#E5E6EB"/>
<path d="M12.3499 79.475L51.6749 94.8312V54.6937L11.6187 37.875L12.3499 79.475Z" fill="#C9CDD4"/>
<path d="M31.7895 25.9571L31.0947 17.9816L34 20.0061L31.7895 25.9571ZM27.1158 17L30.7158 27L22.7579 20.681L27.1158 17ZM22 23.319L28.8842 27L22.7579 26.3252L22 23.319Z" fill="#3491FA"/>
<path d="M51.6749 54.6937L41.2749 76.3875L1.4624 59.8937L11.6187 37.875L51.6749 54.6937Z" fill="#F2F3F5"/>
<path d="M51.6749 22.6001L11.6187 37.8751L51.6749 54.6126V22.6001Z" fill="#E5E6EB"/>
<path d="M52 54.6562L63.1313 76.2687L103.106 59.8562L91.8937 38L52 54.6562Z" fill="#F2F3F5"/>
<path d="M91.6501 38.0376L51.675 22.6001V54.6126L91.6501 38.0376Z" fill="#C9CDD4"/>
<path fill-rule="evenodd" clip-rule="evenodd" d="M50.5504 48.7707C51.6769 48.6025 52.7272 48.335 53.7016 47.9685L53.8473 47.9128L54.081 48.6676C53.0385 49.0734 51.92 49.3708 50.7261 49.5603L50.5551 49.5867L50.5504 48.7707ZM57.157 46.0189L57.3307 45.9918L57.5091 45.9621V45.9621L57.516 45.9607L57.9559 46.404C57.0712 47.1914 56.0878 47.8439 55.0076 48.3606L54.872 48.4245L54.5534 47.6771C55.4641 47.2542 56.2991 46.7289 57.0596 46.1004L57.157 46.0189ZM46.3899 48.9858C47.4984 49.0277 48.5528 48.9985 49.553 48.8986L49.7399 48.879L49.6885 49.6949C48.6481 49.8088 47.5553 49.8485 46.4101 49.8142L46.1948 49.8069L46.3899 48.9858ZM63.179 43.2899L63.4859 44.047C62.4023 44.5325 61.3363 44.9347 60.2923 45.2542L60.0968 45.3131L59.9199 44.5078C60.9151 44.2122 61.9336 43.8373 62.9713 43.382L63.179 43.2899ZM59.9744 42.5184L60.7403 42.8415C60.2932 43.6293 59.7955 44.3502 59.247 45.0038L59.2391 45.0128L59.3299 45.5691C58.7743 45.7135 58.2267 45.834 57.6883 45.9308L57.516 45.9608L57.381 45.8249C57.3106 45.8875 57.2395 45.9492 57.1678 46.01L57.1569 46.0189L57.1529 46.0197C56.7388 46.0827 56.3305 46.1314 55.9284 46.1659L55.7564 46.1798L55.8032 45.3334C56.5443 45.277 57.3095 45.1691 58.0956 45.0086L58.1803 44.9909L58.2245 44.9435C58.8437 44.2692 59.4011 43.5062 59.8967 42.6538L59.9744 42.5184ZM58.1802 44.9907L58.1262 45.0491L58.0269 45.1533V45.1533L58.6472 45.6705C58.8191 45.4922 58.9865 45.3081 59.1496 45.1182L59.2391 45.0126L59.1969 44.7527C58.8874 44.8331 58.5808 44.9057 58.2773 44.9705L58.1802 44.9907ZM67.0102 41.2354L67.4022 41.8658C66.4378 42.4589 65.4833 42.9911 64.541 43.4626L64.3238 43.5704L64.0229 42.8897C64.934 42.4418 65.8585 41.9345 66.7941 41.3674L67.0102 41.2354ZM42.2279 48.2777C43.2826 48.499 44.2965 48.6653 45.2697 48.7767L45.4776 48.7997L45.2841 49.6371C44.2884 49.5306 43.253 49.3679 42.178 49.1491L41.947 49.1014L42.2279 48.2777ZM51.7262 45.0259C52.6764 45.2451 53.7166 45.348 54.8292 45.3274L54.9814 45.3239L54.8729 46.1628C53.6762 46.1968 52.552 46.0977 51.5199 45.8725L51.3858 45.8424L51.7262 45.0259ZM70.7766 38.6849L71.2705 39.2708C70.3419 39.9705 69.419 40.6193 68.5032 41.2174L68.2744 41.3659L67.8502 40.7314C68.7426 40.1561 69.6428 39.5307 70.5498 38.8549L70.7766 38.6849ZM38.2126 47.3786C39.2193 47.6779 40.1956 47.9358 41.1413 48.1523L41.3771 48.2056L41.0696 49.026C40.1106 48.8122 39.1218 48.5567 38.103 48.2594L37.8477 48.1841L38.2126 47.3786ZM74.1837 35.9405L74.7444 36.4739C73.8997 37.2218 73.0576 37.9278 72.2189 38.5921L71.9902 38.7722L71.4811 38.1959C72.296 37.5573 73.1149 36.878 73.937 36.1578L74.1837 35.9405ZM48.2272 43.3772C48.9048 43.9595 49.7407 44.4321 50.7052 44.7707L50.8129 44.8078L50.4354 45.5825C49.371 45.2234 48.441 44.7138 47.6797 44.0789L47.5988 44.0104L48.2272 43.3772ZM61.7269 38.715L62.5939 38.8381C62.2346 39.9255 61.8158 40.9344 61.3369 41.8647L61.2518 42.0281L60.4449 41.7643C60.9056 40.891 61.3113 39.9393 61.6618 38.9091L61.7269 38.715ZM77.3278 32.8244L77.9557 33.3375C77.1917 34.1234 76.4281 34.874 75.6651 35.5893L75.4109 35.8264L74.8221 35.2753C75.5727 34.579 76.3245 33.8477 77.077 33.0812L77.3278 32.8244ZM34.4235 46.0935C35.3658 46.4274 36.2851 46.7301 37.1813 47.0017L37.4495 47.0822L37.0653 47.8701C36.1614 47.6011 35.2348 47.3007 34.2855 46.969L34 46.8685L34.4235 46.0935ZM45.6596 40.5871L46.4967 40.3699C46.6662 41.2456 47.0772 42.071 47.7044 42.7919L47.7679 42.8636L47.1 43.422C46.3749 42.6152 45.89 41.6809 45.6786 40.6811L45.6596 40.5871ZM62.6552 34.7495L62.712 34.7505L63.5563 34.6478L63.5553 34.738L63.516 34.979C63.3517 35.9632 63.1515 36.899 62.9151 37.7865L62.8599 37.9905L61.984 37.8835C62.2355 36.9687 62.4472 35.9977 62.619 34.9705L62.6503 34.7788L62.6505 34.758L62.6537 34.7576L62.6552 34.7495ZM80.3022 29.6111L80.9619 30.0667C80.252 30.872 79.5417 31.6479 78.8316 32.3945L78.5653 32.6731L77.9362 32.1841C78.637 31.4546 79.3381 30.6959 80.0393 29.9079L80.3022 29.6111ZM62.6536 34.7574L62.6502 34.7786L62.6501 34.8056L63.1029 34.7577L62.7119 34.7503L62.6536 34.7574ZM46.3177 36.3973L47.1192 36.6439C46.8894 37.1063 46.7014 37.58 46.5576 38.0628C46.4155 38.5402 46.3425 39.0142 46.3376 39.4811L46.3377 39.581L45.446 39.7116C45.4399 39.1349 45.5242 38.5482 45.6997 37.9586C45.8437 37.4754 46.0277 37.0006 46.2499 36.5363L46.3177 36.3973ZM62.2753 30.8825C62.9445 31.6177 63.3469 32.5882 63.4574 33.776L63.4654 33.8678L62.5361 34.0851C62.4519 33.0288 62.1177 32.1802 61.56 31.5415L61.5116 31.4872L62.2753 30.8825ZM49.1842 32.7467L49.7645 33.3045C48.9316 34.0539 48.2222 34.8858 47.6659 35.7754L47.5972 35.8869L46.823 35.5619C47.4181 34.5824 48.1803 33.668 49.0761 32.8451L49.1842 32.7467ZM58.2587 29.2408C59.5206 29.3101 60.6207 29.6575 61.4785 30.2796L61.5457 30.3293L60.9137 31.0095C60.1964 30.469 59.2615 30.1576 58.1698 30.0832L58.0731 30.0773L58.2587 29.2408ZM52.9763 30.2054L53.2512 30.92C52.2639 31.3649 51.3128 31.9297 50.4481 32.5879L50.3251 32.6825L49.8206 32.1064C50.7467 31.385 51.7678 30.7643 52.8311 30.2718L52.9763 30.2054ZM53.8876 29.8836C55.0655 29.451 56.2487 29.1923 57.3624 29.1264L57.4859 29.1199L57.4023 29.9583C56.3994 30.0049 55.3224 30.2281 54.2423 30.612L54.1126 30.6588L53.8876 29.8836Z" fill="#3491FA"/>
<path fill-rule="evenodd" clip-rule="evenodd" d="M88.2686 13L91 28.2879L85.5013 27.8021L83.6552 32L82.593 28.6695L82.2766 29.0139L81.9602 29.3559L81.0172 28.7683C81.5753 28.1674 82.1334 27.5545 82.6913 26.9295L87.2896 15.5827L79.9637 27.5566L75 26.9656L88.2686 13Z" fill="#3491FA"/>
</svg>
